<?xml version="1.0" encoding="UTF-8" standalone="no"?>
<svg
   xmlns:dc="http://purl.org/dc/elements/1.1/"
   xmlns:cc="http://creativecommons.org/ns#"
   xmlns:rdf="http://www.w3.org/1999/02/22-rdf-syntax-ns#"
   xmlns:svg="http://www.w3.org/2000/svg"
   xmlns="http://www.w3.org/2000/svg"
   xmlns:sodipodi="http://sodipodi.sourceforge.net/DTD/sodipodi-0.dtd"
   xmlns:inkscape="http://www.inkscape.org/namespaces/inkscape"
   inkscape:version="1.0 (6e3e5246a0, 2020-05-07)"
   sodipodi:docname="report_off.svg"
   id="svg74"
   version="1.1"
   height="48px"
   width="48px"
   fill="black"
   viewBox="0 0 24 24">
  <metadata
     id="metadata80">
    <rdf:RDF>
      <cc:Work
         rdf:about="">
        <dc:format>image/svg+xml</dc:format>
        <dc:type
           rdf:resource="http://purl.org/dc/dcmitype/StillImage" />
      </cc:Work>
    </rdf:RDF>
  </metadata>
  <defs
     id="defs78" />
  <sodipodi:namedview
     inkscape:current-layer="svg74"
     inkscape:window-maximized="1"
     inkscape:window-y="0"
     inkscape:window-x="0"
     inkscape:cy="24"
     inkscape:cx="24"
     inkscape:zoom="37.695182"
     showgrid="false"
     id="namedview76"
     inkscape:window-height="2123"
     inkscape:window-width="3840"
     inkscape:pageshadow="2"
     inkscape:pageopacity="0"
     guidetolerance="10"
     gridtolerance="10"
     objecttolerance="10"
     borderopacity="1"
     bordercolor="#666666"
     pagecolor="#ffffff" />
  <path
     id="path70"
     fill="none"
     d="M0 0h24v24H0z" />
  <path
     id="path72"
     d="M11 7h2v2.92l6.91 6.91 1.09-1.1V8.27L15.73 3H8.27L7.18 4.1 11 7.92zm11.27 14.73l-20-20.01L1 2.99l3.64 3.64L3 8.27v7.46L8.27 21h7.46l1.64-1.63L21 23l1.27-1.27zM12 17.3c-.72 0-1.3-.58-1.3-1.3s.58-1.3 1.3-1.3 1.3.58 1.3 1.3-.58 1.3-1.3 1.3z" />
  <path
     transform="scale(0.5)"
     id="path82"
     d="m 38.373646,42.339694 -3.625885,-3.625885 -1.648794,1.636286 -1.648792,1.636288 H 24.004428 16.558681 L 11.286149,36.713802 6.0136165,31.441219 V 23.999895 16.55857 L 7.6584111,14.913936 9.3032059,13.269302 5.6621703,9.6281941 2.0211348,5.9870865 3.281361,4.7268602 4.5415873,3.466634 20.40553,19.337491 c 8.725168,8.728972 17.717256,17.727279 19.982418,19.996238 l 4.118474,4.125378 -1.253444,1.253238 -1.253447,1.253237 z M 24.458823,34.571847 c 0.446031,-0.07778 0.907676,-0.296929 1.26615,-0.601058 0.338527,-0.287207 0.665957,-0.811661 0.800805,-1.282676 0.05322,-0.185881 0.06076,-0.271512 0.06076,-0.689743 0,-0.418728 -0.0075,-0.503301 -0.06066,-0.686958 -0.220084,-0.759851 -0.710453,-1.339002 -1.417206,-1.673794 -0.37225,-0.176337 -0.644884,-0.235356 -1.095404,-0.237131 -0.270681,-0.0011 -0.428954,0.01179 -0.583629,0.04741 -1.011432,0.232912 -1.786692,1.023684 -1.990706,2.030537 -0.06272,0.309536 -0.04263,0.938934 0.03904,1.222944 0.373583,1.299153 1.653059,2.102017 2.98085,1.870469 z"
     style="fill:#ff0000;stroke:#000000;stroke-width:0.0132643" />
  <path
     transform="scale(0.5)"
     id="path84"
     d="M 32.920238,26.727547 26.016173,19.821709 V 16.910215 13.998722 H 24 21.983827 v 0.895328 0.895329 l -3.800154,-3.800155 -3.800154,-3.8001534 1.087485,-1.087727 1.087484,-1.0877271 h 7.441416 7.441415 l 5.272532,5.2725825 5.272532,5.272582 v 7.445746 7.445746 l -1.08104,1.091556 -1.08104,1.091556 z"
     style="fill:#ff0000;stroke:#000000;stroke-width:0.0132643" />
</svg>
